HIERARCHY
ROOT Hips
{
	OFFSET 0.000000 0.000000 0.000000
	CHANNELS 6 Xposition Yposition Zposition Zrotation Yrotation Xrotation 
	JOINT LHipJoint
	{
		OFFSET 0.000000 0.000000 0.000000
		CHANNELS 3 Zrotation Yrotation Xrotation
		JOINT LeftUpLeg
		{
			OFFSET 1.363060 -1.794630 0.839290
			CHANNELS 3 Zrotation Yrotation Xrotation
			JOINT LeftLeg
			{
				OFFSET 2.448110 -6.726130 0.000000
				CHANNELS 3 Zrotation Yrotation Xrotation
				JOINT LeftFoot
				{
					OFFSET 2.562200 -7.039590 0.000000
					CHANNELS 3 Zrotation Yrotation Xrotation
					JOINT LeftToeBase
					{
						OFFSET 0.157640 -0.433110 2.322550
						CHANNELS 3 Zrotation Yrotation Xrotation
						End Site
						{
							OFFSET 0.000000 0.000000 0.000000
						}
					}
				}
			}
		}
	}
	JOINT RHipJoint
	{
		OFFSET 0.000000 0.000000 0.000000
		CHANNELS 3 Zrotation Yrotation Xrotation
		JOINT RightUpLeg
		{
			OFFSET -1.305520 -1.794630 0.839290
			CHANNELS 3 Zrotation Yrotation Xrotation
			JOINT RightLeg
			{
				OFFSET -2.542530 -6.985550 0.000000
				CHANNELS 3 Zrotation Yrotation Xrotation
				JOINT RightFoot
				{
					OFFSET -2.568260 -7.056230 0.000000
					CHANNELS 3 Zrotation Yrotation Xrotation
					JOINT RightToeBase
					{
						OFFSET -0.164730 -0.452590 2.363150
						CHANNELS 3 Zrotation Yrotation Xrotation
						End Site
						{
							OFFSET 0.000000 0.000000 0.000000
						}
					}
				}
			}
		}
	}
	JOINT LowerBack
	{
		OFFSET 0.000000 0.000000 0.000000
		CHANNELS 3 Zrotation Yrotation Xrotation
		JOINT Spine
		{
			OFFSET 0.028270 2.035590 -0.193380
			CHANNELS 3 Zrotation Yrotation Xrotation
			JOINT Spine1
			{
				OFFSET 0.056720 2.048850 -0.042750
				CHANNELS 3 Zrotation Yrotation Xrotation
				JOINT Neck
				{
					OFFSET 0.000000 0.000000 0.000000
					CHANNELS 3 Zrotation Yrotation Xrotation
					JOINT Neck1
					{
						OFFSET -0.054170 1.746240 0.172020
						CHANNELS 3 Zrotation Yrotation Xrotation
						JOINT Head
						{
							OFFSET 0.104070 1.761360 -0.123970
							CHANNELS 3 Zrotation Yrotation Xrotation
							End Site
							{
								OFFSET 0.000000 0.000000 0.000000
							}
						}
					}
				}
				JOINT LeftShoulder
				{
					OFFSET 0.000000 0.000000 0.000000
					CHANNELS 3 Zrotation Yrotation Xrotation
					JOINT LeftArm
					{
						OFFSET 3.362410 1.200890 -0.311210
						CHANNELS 3 Zrotation Yrotation Xrotation
						JOINT LeftForeArm
						{
							OFFSET 4.983000 -0.000000 -0.000000
							CHANNELS 3 Zrotation Yrotation Xrotation
							JOINT LeftHand
							{
								OFFSET 3.483560 -0.000000 -0.000000
								CHANNELS 3 Zrotation Yrotation Xrotation
								JOINT LeftFingerBase
								{
									OFFSET 0.000000 0.000000 0.000000
									CHANNELS 3 Zrotation Yrotation Xrotation
									JOINT LeftHandIndex1
									{
										OFFSET 0.715260 -0.000000 -0.000000
										CHANNELS 3 Zrotation Yrotation Xrotation
										End Site
										{
											OFFSET 0.000000 0.000000 0.000000
										}
									}
								}
								JOINT LThumb
								{
									OFFSET 0.000000 0.000000 0.000000
									CHANNELS 3 Zrotation Yrotation Xrotation
									End Site
									{
										OFFSET 0.000000 0.000000 0.000000
									}
								}
							}
						}
					}
				}
				JOINT RightShoulder
				{
					OFFSET 0.000000 0.000000 0.000000
					CHANNELS 3 Zrotation Yrotation Xrotation
					JOINT RightArm
					{
						OFFSET -3.136600 1.374050 -0.404650
						CHANNELS 3 Zrotation Yrotation Xrotation
						JOINT RightForeArm
						{
							OFFSET -5.241900 -0.000000 -0.000000
							CHANNELS 3 Zrotation Yrotation Xrotation
							JOINT RightHand
							{
								OFFSET -3.444170 -0.000000 -0.000000
								CHANNELS 3 Zrotation Yrotation Xrotation
								JOINT RightFingerBase
								{
									OFFSET 0.000000 0.000000 0.000000
									CHANNELS 3 Zrotation Yrotation Xrotation
									JOINT RightHandIndex1
									{
										OFFSET -0.622530 -0.000000 -0.000000
										CHANNELS 3 Zrotation Yrotation Xrotation
										End Site
										{
											OFFSET 0.000000 0.000000 0.000000
										}
									}
								}
								JOINT RThumb
								{
									OFFSET 0.000000 0.000000 0.000000
									CHANNELS 3 Zrotation Yrotation Xrotation
									End Site
									{
										OFFSET 0.000000 0.000000 0.000000
									}
								}
							}
						}
					}
				}
			}
		}
	}
}
MOTION
Frames: 9
Frame Time: 0.008333
1.586007 17.052400 0.955421 73.949841 -88.667551 -58.998636 -9.753318 2.153679 2.685507 -9.123898 6.714594 -24.279255 -1.979066 -0.486955 18.095031 2.686289 14.641337 -9.728594 -0.328800 0.000000 -42.429700 10.723615 -1.267863 2.295751 1.339443 -7.253713 -21.826128 1.612489 -0.099944 18.120899 -1.942404 -8.248304 -7.029338 -0.626000 0.000000 -67.093000 -0.600011 -3.218124 -6.465030 -0.436477 -3.289159 -3.888180 -6.783348 -3.133559 -0.845701 11.453162 -10.722393 -5.001342 -4.167665 -0.336846 0.693257 0.000000 0.000000 0.000000 19.183364 2.132535 -3.405064 -91.389302 -16.762759 27.896758 178.483904 -48.824344 179.680996 18.731040 -45.291153 -8.585669 -0.341671 2.699257 -0.000000 0.000000 0.000000 0.000000 0.000000 0.000000 0.000000 4.589830 -10.362829 -1.815484 82.927035 15.634145 27.015550 -178.173202 49.027079 179.703284 -38.464976 53.113145 -21.041216 0.631109 -2.284932 -0.000000 0.000000 0.000000 0.000000 0.000000 0.000000 0.000000 
1.558088 17.049114 0.981037 31.501882 -87.950883 -16.235280 -9.851040 2.458186 3.365116 -8.504449 4.855809 -25.301365 -1.934789 -0.327159 18.668128 2.717909 14.478921 -9.894315 -0.329400 -0.000001 -42.544800 10.570852 -1.064878 1.999810 2.095426 -8.706591 -21.682401 1.650997 0.129068 17.769058 -1.999774 -8.730096 -6.898259 -0.685900 -0.000000 -67.040000 -0.275617 -3.118570 -6.935403 -0.404497 -3.236540 -4.007693 -6.809481 -3.105809 -0.961019 11.364382 -10.270727 -4.816602 -4.206385 -0.340744 0.748723 0.000000 0.000000 0.000000 19.111475 2.060775 -3.366448 -91.679240 -17.271888 28.597453 178.508602 -49.141566 179.682015 18.797003 -45.288170 -8.616934 -0.346261 2.702983 -0.000000 0.000000 0.000000 0.000000 0.000000 0.000000 0.000000 4.631179 -9.938899 -1.862836 82.587862 15.922767 26.080727 -178.141447 48.628417 179.701486 -39.040176 53.899789 -21.714628 0.620425 -2.295908 -0.000000 0.000000 0.000000 0.000000 0.000000 0.000000 0.000000 
1.536027 17.048966 0.995564 22.242808 -86.811513 -6.847323 -9.976211 2.505874 3.688167 -8.312033 3.934175 -25.662789 -1.906564 -0.314259 18.744388 2.667315 14.115864 -9.825231 -0.296400 -0.000001 -42.755901 10.430676 -1.099281 1.912948 2.320788 -9.406200 -21.516360 1.657910 0.198102 17.553430 -2.104756 -9.319903 -6.845393 -0.742400 0.000000 -66.979300 -0.408391 -3.028607 -7.216760 -0.443947 -3.140163 -4.089557 -6.873327 -3.023569 -1.129484 11.359751 -9.807068 -4.561760 -4.262191 -0.346605 0.816374 0.000000 0.000000 0.000000 19.171394 1.905191 -3.352435 -91.826855 -17.773203 29.254748 178.506017 -49.446319 179.679452 18.832375 -45.271642 -8.629517 -0.344694 2.702329 -0.000000 0.000000 0.000000 0.000000 0.000000 0.000000 0.000000 4.864995 -9.490880 -1.875159 82.238207 16.366439 25.078112 -178.146725 48.288824 179.701566 -39.572718 54.604030 -22.339609 0.613315 -2.307177 -0.000000 0.000000 0.000000 0.000000 0.000000 0.000000 0.000000 
1.513211 17.050977 1.010464 16.787446 -85.504196 -1.241986 -10.051074 2.527762 4.009119 -8.097928 2.994749 -26.007070 -1.874056 -0.327355 18.737980 2.603823 13.705998 -9.683851 -0.245800 0.000000 -42.992000 10.337732 -1.170617 1.851006 2.572559 -10.119857 -21.343302 1.672940 0.255576 17.234501 -2.215797 -9.944592 -6.738643 -0.814900 0.000000 -66.925601 -0.503211 -2.960122 -7.522541 -0.471768 -3.068707 -4.175712 -6.919734 -2.965951 -1.300091 11.347463 -9.343350 -4.294648 -4.315615 -0.352346 0.887299 0.000000 0.000000 0.000000 19.208130 1.726632 -3.331784 -91.990972 -18.281957 29.947729 178.508497 -49.761634 179.677281 18.828664 -45.236288 -8.620198 -0.342387 2.701604 -0.000000 0.000000 0.000000 0.000000 0.000000 0.000000 0.000000 5.105422 -9.060995 -1.894072 81.759768 16.936897 23.989109 -178.169692 47.961871 179.702083 -40.058706 55.232623 -22.911937 0.606820 -2.315857 -0.000000 0.000000 0.000000 0.000000 0.000000 0.000000 0.000000 
1.490139 17.055113 1.025539 13.351712 -84.114152 2.357366 -10.084384 2.547651 4.329491 -7.875026 2.052491 -26.322348 -1.844209 -0.354849 18.631306 2.530898 13.266919 -9.469731 -0.178600 -0.000000 -43.251500 10.284776 -1.253945 1.804246 2.829712 -10.829611 -21.149640 1.688788 0.311807 16.827330 -2.327226 -10.585058 -6.574430 -0.904300 -0.000000 -66.882700 -0.581120 -2.895242 -7.843903 -0.494556 -3.002896 -4.265473 -6.945220 -2.913966 -1.472787 11.324111 -8.875850 -4.015168 -4.366257 -0.357888 0.961399 0.000000 0.000000 0.000000 19.218278 1.538936 -3.305235 -92.163350 -18.801402 30.667721 178.514829 -50.081640 179.675379 18.787682 -45.182048 -8.589798 -0.339267 2.700768 -0.000000 0.000000 0.000000 0.000000 0.000000 0.000000 0.000000 5.354137 -8.636429 -1.916403 81.130535 17.649772 22.804859 -178.215335 47.657765 179.703285 -40.495162 55.800769 -23.434010 0.600830 -2.322023 -0.000000 0.000000 0.000000 0.000000 0.000000 0.000000 0.000000 
1.467142 17.061273 1.041257 10.974665 -82.679938 4.913320 -10.092480 2.570993 4.650201 -7.639429 1.125530 -26.628287 -1.818957 -0.390382 18.437614 2.448661 12.794993 -9.191404 -0.098700 -0.000000 -43.534300 10.255419 -1.344192 1.774904 3.095496 -11.500497 -20.933581 1.702648 0.372671 16.330820 -2.440160 -11.251615 -6.346986 -1.015700 -0.000000 -66.850900 -0.644258 -2.827858 -8.185177 -0.511860 -2.936439 -4.359932 -6.942644 -2.862018 -1.646301 11.280125 -8.397991 -3.723972 -4.412240 -0.363084 1.038612 0.000000 0.000000 0.000000 19.187652 1.352590 -3.271415 -92.341351 -19.332891 31.406671 178.525845 -50.401344 179.673772 18.715693 -45.108550 -8.541209 -0.335681 2.699994 -0.000000 0.000000 0.000000 0.000000 0.000000 0.000000 0.000000 5.598600 -8.206326 -1.941111 80.323342 18.515067 21.512331 -178.284230 47.381203 179.705242 -40.882242 56.325122 -23.911533 0.594980 -2.325663 -0.000000 0.000000 0.000000 0.000000 0.000000 0.000000 0.000000 
1.444936 17.069345 1.057201 9.330748 -81.221578 6.738627 -10.079820 2.599811 4.965806 -7.408401 0.212946 -26.894418 -1.799382 -0.432552 18.142577 2.359285 12.307438 -8.846193 -0.007600 -0.000000 -43.835100 10.247389 -1.435005 1.755611 3.341062 -12.135278 -20.681574 1.712099 0.436981 15.761156 -2.550218 -11.923650 -6.060126 -1.148100 0.000000 -66.834800 -0.715881 -2.758406 -8.530620 -0.527407 -2.866966 -4.457019 -6.908308 -2.807499 -1.823242 11.210985 -7.899543 -3.417480 -4.453114 -0.367904 1.119677 0.000000 0.000000 0.000000 19.111853 1.169707 -3.230334 -92.512181 -19.881224 32.151941 178.541086 -50.717695 179.672278 18.623067 -45.018003 -8.479951 -0.331744 2.699163 -0.000000 0.000000 0.000000 0.000000 0.000000 0.000000 0.000000 5.840885 -7.759010 -1.964207 79.314627 19.538030 20.093056 -178.376715 47.145363 179.708152 -41.223381 56.820657 -24.351506 0.589033 -2.326407 -0.000000 0.000000 0.000000 0.000000 0.000000 0.000000 0.000000 
1.424150 17.079209 1.072789 8.252861 -79.755361 7.985236 -10.047943 2.634441 5.269121 -7.202150 -0.688647 -27.082254 -1.786425 -0.480822 17.732495 2.265188 11.823682 -8.432293 0.093000 -0.000000 -44.141701 10.261735 -1.520505 1.736177 3.533333 -12.749286 -20.378710 1.715539 0.501430 15.140324 -2.651362 -12.571644 -5.720313 -1.297700 0.000000 -66.845600 -0.818745 -2.689793 -8.858597 -0.544846 -2.794417 -4.553662 -6.840018 -2.749926 -2.006422 11.114181 -7.367239 -3.092165 -4.487648 -0.372249 1.205238 0.000000 0.000000 0.000000 18.983119 0.994434 -3.180988 -92.661697 -20.453087 32.889021 178.564324 -51.043957 179.670936 18.513757 -44.963435 -8.418141 -0.326740 2.698704 -0.000000 0.000000 0.000000 0.000000 0.000000 0.000000 0.000000 6.085551 -7.280565 -1.981693 78.079883 20.721244 18.525307 -178.490633 46.965698 179.712177 -41.527285 57.299509 -24.763132 0.582772 -2.323557 -0.000000 0.000000 0.000000 0.000000 0.000000 0.000000 0.000000 
1.404164 17.090470 1.089911 7.333099 -78.290652 9.091447 -10.012942 2.670572 5.567953 -6.976963 -1.548084 -27.283622 -1.778211 -0.530821 17.268721 2.163270 11.308856 -7.975861 0.195700 0.000000 -44.471800 10.278256 -1.612487 1.741859 3.734571 -13.254944 -20.046411 1.712935 0.574197 14.431736 -2.756756 -13.263225 -5.313201 -1.479600 -0.000001 -66.858100 -0.895255 -2.613778 -9.210649 -0.551302 -2.716285 -4.657669 -6.723747 -2.687621 -2.192580 10.960605 -6.796691 -2.754064 -4.513080 -0.375995 1.294540 0.000000 0.000000 0.000000 18.778400 0.830787 -3.121380 -92.800864 -21.033466 33.611419 178.588801 -51.337830 179.669535 18.415857 -44.842631 -8.349223 -0.323403 2.698048 -0.000000 0.000000 0.000000 0.000000 0.000000 0.000000 0.000000 6.285448 -6.757290 -1.992758 76.582503 22.042706 16.786348 -178.614293 46.844142 179.716790 -41.797199 57.739749 -25.136717 0.576117 -2.316222 -0.000000 0.000000 0.000000 0.000000 0.000000 0.000000 0.000000 
